<svg width="38" height="25" viewBox="0 0 38 25" fill="none" xmlns="http://www.w3.org/2000/svg">
<g clip-path="url(#clip0_237_112)">
<path d="M34.3872 0.0136719H3.61287C3.48468 0.0136719 3.35626 0.0136719 3.2283 0.0143513C3.12026 0.0152573 3.01245 0.0163898 2.90441 0.0193341C2.66909 0.0256758 2.43173 0.0397182 2.19935 0.0813923C1.9663 0.12132 1.74051 0.195746 1.52939 0.30222C1.10499 0.518083 0.760026 0.863046 0.544163 1.28745C0.4375 1.49864 0.363065 1.72462 0.323336 1.95786C0.281209 2.19047 0.267393 2.4276 0.261051 2.6627C0.258291 2.77064 0.25663 2.8786 0.256068 2.98658C0.255615 3.11432 0.255615 3.24251 0.255615 3.37093V20.6562C0.255615 20.7846 0.255615 20.9126 0.256068 21.041C0.256748 21.1488 0.258107 21.2568 0.261051 21.3649C0.267393 21.5995 0.281435 21.8369 0.323336 22.0693C0.362983 22.3025 0.437342 22.5285 0.543937 22.7397C0.651108 22.9506 0.790999 23.1432 0.958413 23.3104C1.12554 23.4779 1.31819 23.6178 1.52917 23.7249C1.74365 23.8343 1.96335 23.9038 2.19958 23.9462C2.43173 23.9876 2.66909 24.0017 2.90441 24.008C3.01245 24.0105 3.12026 24.0119 3.2283 24.0125C3.35626 24.0134 3.48468 24.0134 3.61287 24.0134H34.3872C34.5152 24.0134 34.6436 24.0134 34.7715 24.0125C34.8794 24.0121 34.9872 24.0105 35.0956 24.008C35.3305 24.0017 35.5679 23.9876 35.8007 23.9462C36.0338 23.9062 36.2596 23.8316 36.4707 23.7249C36.8949 23.5087 37.2397 23.1639 37.4559 22.7397C37.5653 22.5252 37.6346 22.3055 37.6765 22.0693C37.7186 21.8369 37.7322 21.5995 37.7386 21.3649C37.7415 21.2568 37.7431 21.1488 37.7435 21.041C37.7444 20.9126 37.7444 20.7846 37.7444 20.6562V3.37116C37.7444 3.24274 37.7444 3.11454 37.7435 2.98635C37.7431 2.87845 37.7414 2.77056 37.7386 2.6627C37.7322 2.4276 37.7186 2.19047 37.6765 1.95786C37.6371 1.72458 37.5627 1.49857 37.4559 1.28745C37.2399 0.86312 36.895 0.518185 36.4707 0.30222C36.2595 0.195856 36.0337 0.121508 35.8007 0.0816188C35.5679 0.0397182 35.3305 0.0259023 35.0956 0.0195606C34.9876 0.0168172 34.8796 0.0151562 34.7715 0.0145778C34.6436 0.0136719 34.5152 0.0136719 34.3872 0.0136719Z" fill="black"/>
<path d="M34.3871 0.813477L34.7658 0.814156C34.8682 0.814836 34.9708 0.815968 35.0739 0.818686C35.2535 0.823669 35.4632 0.833408 35.6589 0.868514C35.8288 0.89909 35.9714 0.94552 36.1082 1.01528C36.382 1.15447 36.6044 1.37712 36.7433 1.65104C36.8126 1.78693 36.8588 1.92871 36.8894 2.10017C36.9243 2.29359 36.934 2.504 36.9388 2.68451C36.9417 2.78643 36.9431 2.88835 36.9433 2.99254C36.9444 3.11869 36.9444 3.24462 36.9444 3.371V20.6563C36.9444 20.7826 36.9444 20.9086 36.9435 21.0372C36.9431 21.1391 36.9417 21.2411 36.939 21.343C36.934 21.5233 36.9243 21.7337 36.889 21.9294C36.8633 22.085 36.814 22.2359 36.7429 22.3767C36.6037 22.6507 36.3809 22.8733 36.1069 23.0124C35.971 23.0817 35.8288 23.1282 35.6605 23.1585C35.4609 23.1941 35.2421 23.2038 35.0775 23.2083C34.974 23.2106 34.8709 23.2122 34.7652 23.2126C34.6395 23.2136 34.5131 23.2136 34.3871 23.2136H3.60786C3.48329 23.2136 3.35872 23.2136 3.23188 23.2126C3.12995 23.2122 3.02803 23.2108 2.92612 23.2086C2.75761 23.204 2.53882 23.1941 2.34087 23.1587C2.18436 23.1327 2.03271 23.083 1.89106 23.0115C1.7552 22.9425 1.63119 22.8523 1.5237 22.7443C1.41587 22.6366 1.32581 22.5126 1.25689 22.3767C1.18572 22.2351 1.13639 22.0835 1.11058 21.9271C1.07525 21.7316 1.06528 21.5221 1.06075 21.3432C1.05819 21.2409 1.05668 21.1386 1.05622 21.0363L1.05554 20.7358V3.29173L1.05599 2.99163C1.05646 2.88917 1.05797 2.78671 1.06052 2.68428C1.06551 2.5049 1.07525 2.2954 1.11081 2.09835C1.13666 1.94227 1.18599 1.791 1.25712 1.64968C1.32597 1.51424 1.41566 1.39057 1.52438 1.28208C1.63213 1.17416 1.75627 1.08396 1.8922 1.01483C2.03349 0.943839 2.18467 0.894516 2.34065 0.868514C2.53656 0.833408 2.74652 0.823669 2.92635 0.818686C3.02872 0.815968 3.13132 0.814836 3.23302 0.814156L3.61284 0.813477H34.3871Z" fill="white"/>
<path d="M10.1098 8.11539C10.4278 7.7179 10.6434 7.18406 10.5865 6.63867C10.1213 6.66177 9.55376 6.94557 9.22489 7.34351C8.92978 7.68415 8.66863 8.24018 8.73658 8.76269C9.25886 8.80799 9.7807 8.50178 10.1098 8.11539Z" fill="black"/>
<path d="M10.5806 8.86437C9.82187 8.81907 9.17727 9.2947 8.81512 9.2947C8.45273 9.2947 7.89806 8.88702 7.29809 8.89812C6.51738 8.90944 5.79306 9.3511 5.39671 10.0532C4.58179 11.4575 5.18154 13.5412 5.97425 14.6849C6.35906 15.2512 6.82291 15.874 7.43398 15.8516C8.01153 15.8289 8.23779 15.4779 8.93946 15.4779C9.6409 15.4779 9.84474 15.8516 10.456 15.8403C11.0898 15.8289 11.4861 15.274 11.8709 14.7078C12.3126 14.0623 12.4931 13.4395 12.5044 13.4055C12.4931 13.3942 11.2823 12.9296 11.2709 11.5367C11.2596 10.3703 12.2218 9.8154 12.267 9.7812C11.7237 8.97761 10.8748 8.88702 10.5804 8.86437" fill="black"/>
<path d="M18.1422 7.28613C19.7906 7.28613 20.9386 8.42243 20.9386 10.0767C20.9386 11.7369 19.767 12.8791 18.101 12.8791H16.2759V15.7818H14.9573V7.28613H18.1422ZM16.2759 11.7722H17.7889C18.9372 11.7722 19.5904 11.1541 19.5904 10.0826C19.5904 9.01131 18.9369 8.39888 17.7947 8.39888H16.2759V11.7722Z" fill="black"/>
<path d="M21.2657 14.0212C21.2657 12.932 22.0958 12.308 23.6265 12.2138L25.269 12.1137V11.6426C25.269 10.9541 24.8157 10.5772 24.0092 10.5772C23.3438 10.5772 22.8609 10.9185 22.7613 11.4424H21.5717C21.6073 10.3417 22.6433 9.54102 24.0446 9.54102C25.5516 9.54102 26.5348 10.3299 26.5348 11.5545V15.7815H25.3163V14.763H25.2868C24.9394 15.4282 24.1739 15.846 23.3438 15.846C22.1194 15.846 21.2657 15.1163 21.2657 14.0212ZM25.269 13.4738V12.9968L23.8031 13.091C22.9787 13.144 22.5493 13.45 22.5493 13.9857C22.5493 14.5039 22.9966 14.8395 23.6971 14.8395C24.5918 14.8395 25.269 14.2683 25.269 13.4738Z" fill="black"/>
<path d="M27.6552 18.0535V17.0352C27.7376 17.0467 27.9376 17.0585 28.0436 17.0585C28.6263 17.0585 28.9561 16.8116 29.1563 16.1754L29.2741 15.7988L27.0427 9.61719H28.4202L29.9746 14.633H30.0041L31.5583 9.61719H32.9007L30.5868 16.1107C30.0569 17.6003 29.4505 18.089 28.1672 18.089C28.0671 18.089 27.7433 18.0773 27.6552 18.0535Z" fill="black"/>
</g>
<defs>
<clipPath id="clip0_237_112">
<rect width="38" height="24" fill="white" transform="translate(0 0.0136719)"/>
</clipPath>
</defs>
</svg>
