<svg width="18" height="18" viewBox="0 0 18 18" fill="none" xmlns="http://www.w3.org/2000/svg">
<path d="M9.00001 6C9.39783 6 9.77936 6.15803 10.0607 6.43934C10.342 6.72064 10.5 7.10217 10.5 7.5V10.5C10.5 10.8978 10.342 11.2794 10.0607 11.5607C9.77936 11.842 9.39783 12 9.00001 12H6.75001C6.35218 12 5.97065 11.842 5.68935 11.5607C5.40804 11.2794 5.25001 10.8978 5.25001 10.5V7.5C5.25001 7.10217 5.40804 6.72064 5.68935 6.43934C5.97065 6.15803 6.35218 6 6.75001 6H9.00001ZM11.25 9.8715V8.1285L12.5505 6.897C12.6303 6.82131 12.7306 6.77069 12.839 6.75141C12.9473 6.73214 13.0589 6.74505 13.1599 6.78855C13.261 6.83205 13.3471 6.90424 13.4075 6.99617C13.4679 7.08809 13.5001 7.19573 13.5 7.30575V10.6942C13.5001 10.8043 13.4679 10.9119 13.4075 11.0038C13.3471 11.0958 13.261 11.1679 13.1599 11.2114C13.0589 11.2549 12.9473 11.2679 12.839 11.2486C12.7306 11.2293 12.6303 11.1787 12.5505 11.103L11.25 9.8715ZM16.5 9C16.5 4.85775 13.1423 1.5 9.00001 1.5C4.85776 1.5 1.50001 4.85775 1.50001 9C1.49845 10.1985 1.78527 11.3797 2.33626 12.444L1.53526 15.3112C1.49058 15.4713 1.48926 15.6404 1.53145 15.8012C1.57364 15.962 1.65781 16.1086 1.77534 16.2262C1.89287 16.3437 2.03953 16.4279 2.2003 16.4701C2.36107 16.5122 2.53016 16.5109 2.69026 16.4662L5.55976 15.666C6.62312 16.2156 7.803 16.5016 9.00001 16.5C13.1423 16.5 16.5 13.1422 16.5 9ZM2.62501 9C2.62541 7.60104 3.08598 6.24105 3.93569 5.12972C4.78541 4.01838 5.9771 3.21741 7.32703 2.85028C8.67695 2.48315 10.1102 2.57026 11.4057 3.09818C12.7012 3.62609 13.7871 4.5655 14.496 5.77156C15.2049 6.97763 15.4973 8.38338 15.3283 9.77209C15.1593 11.1608 14.5381 12.4554 13.5607 13.4562C12.5832 14.457 11.3036 15.1085 9.9193 15.3102C8.53497 15.5119 7.12271 15.2527 5.90026 14.5725L5.69776 14.46L2.70826 15.2932L3.54301 12.3052L3.42976 12.1027C2.90031 11.1544 2.62322 10.0861 2.62501 9Z" fill="white"/>
</svg>
