<svg width="20" height="21" viewBox="0 0 20 21" fill="none" xmlns="http://www.w3.org/2000/svg">
<path d="M16.3021 5.09681H14.0258C13.1546 5.09681 12.4098 5.40594 11.7916 6.02421C11.2014 6.64248 10.9063 7.38721 10.9063 8.2584V10.4926H9.09368V13.1905H10.9063V19.4715H13.6042V13.1905H16.3021V10.4926H13.6042V8.67995C13.6042 8.45512 13.6885 8.2584 13.8571 8.08978C14.0258 7.89306 14.2365 7.7947 14.4895 7.7947H16.3021V5.09681ZM1 2.51367C1 1.96139 1.44772 1.51367 2 1.51367H18C18.5523 1.51367 19 1.96139 19 2.51367V18.4715C19 19.0238 18.5523 19.4715 18 19.4715H2C1.44772 19.4715 1 19.0238 1 18.4715V2.51367Z" fill="black"/>
</svg>
