<svg width="38" height="25" viewBox="0 0 38 25" fill="none" xmlns="http://www.w3.org/2000/svg">
<g clip-path="url(#clip0_237_123)">
<path opacity="0.07" d="M35 0.0136719H3C1.3 0.0136719 0 1.31367 0 3.01367V21.0137C0 22.7137 1.4 24.0137 3 24.0137H35C36.7 24.0137 38 22.7137 38 21.0137V3.01367C38 1.31367 36.6 0.0136719 35 0.0136719Z" fill="black"/>
<path d="M35 1.01367C36.1 1.01367 37 1.91367 37 3.01367V21.0137C37 22.1137 36.1 23.0137 35 23.0137H3C1.9 23.0137 1 22.1137 1 21.0137V3.01367C1 1.91367 1.9 1.01367 3 1.01367H35Z" fill="white"/>
<path d="M18.093 11.9894V15.1894H17.075V7.28941H19.766C20.0884 7.28395 20.4087 7.34228 20.7085 7.46104C21.0083 7.5798 21.2817 7.75664 21.513 7.98141C21.732 8.18581 21.9086 8.43137 22.0327 8.70405C22.1568 8.97674 22.2259 9.2712 22.2361 9.57062C22.2463 9.87003 22.1974 10.1685 22.0922 10.449C21.987 10.7295 21.8275 10.9866 21.6229 11.2054L21.513 11.3214C21.043 11.7684 20.415 12.0114 19.766 11.9954L18.093 11.9894ZM18.093 8.25741V11.0454H19.791C20.168 11.0574 20.5319 10.9104 20.7959 10.6414C20.9848 10.4446 21.1116 10.1966 21.1606 9.92825C21.2096 9.65992 21.1786 9.3831 21.0715 9.13224C20.9644 8.88138 20.7859 8.66755 20.5582 8.51733C20.3305 8.36712 20.0637 8.28717 19.791 8.28741L18.093 8.25741ZM24.577 9.60541C25.2269 9.57541 25.863 9.79341 26.3549 10.2184C26.7999 10.6484 27.0369 11.2484 27.0049 11.8674V15.2014H26.0359V14.4354H25.9869C25.8132 14.7227 25.5674 14.9597 25.274 15.123C24.9806 15.2863 24.6497 15.3702 24.3139 15.3664C23.7658 15.3842 23.2314 15.1937 22.818 14.8334C22.6221 14.6736 22.4651 14.4714 22.3589 14.242C22.2527 14.0127 22.2001 13.7621 22.205 13.5094C22.1934 13.254 22.243 12.9995 22.3496 12.7672C22.4563 12.5348 22.6168 12.3312 22.818 12.1734C23.3114 11.8186 23.9086 11.6374 24.516 11.6584C25.033 11.6384 25.546 11.7514 26.006 11.9894V11.7814C26.0093 11.6094 25.9735 11.439 25.9013 11.2829C25.829 11.1268 25.7222 10.9891 25.589 10.8804C25.3213 10.6371 24.9706 10.5054 24.6089 10.5124C24.3463 10.5099 24.0873 10.5745 23.8565 10.6999C23.6257 10.8254 23.4307 11.0076 23.29 11.2294L22.395 10.6654C22.638 10.3172 22.9661 10.037 23.348 9.85146C23.7299 9.66592 24.153 9.58122 24.577 9.60541ZM23.29 13.5334C23.2875 13.6629 23.317 13.7911 23.3758 13.9065C23.4346 14.0219 23.5208 14.1212 23.627 14.1954C23.85 14.3714 24.127 14.4644 24.412 14.4584C24.841 14.4574 25.252 14.2884 25.558 13.9864C25.863 13.7004 26.0359 13.3014 26.0359 12.8834C25.651 12.6097 25.1832 12.4776 24.712 12.5094C24.346 12.495 23.9851 12.598 23.6819 12.8034C23.5619 12.8837 23.4634 12.9923 23.395 13.1196C23.3267 13.2469 23.2906 13.389 23.29 13.5334ZM32.576 9.78341L29.186 17.5734H28.138L29.419 14.8454L27.195 9.78341H28.298L29.91 13.6684L31.479 9.78341H32.576Z" fill="#5F6368"/>
<path d="M13.986 11.2979C13.986 10.9899 13.962 10.6819 13.913 10.3779H9.62305V12.1249H12.074C12.0241 12.4026 11.9187 12.6673 11.7641 12.9032C11.6094 13.1391 11.4087 13.3414 11.174 13.4979V14.6319H12.638C13.0832 14.2012 13.4331 13.682 13.6653 13.1078C13.8975 12.5335 14.0067 11.917 13.986 11.2979Z" fill="#4285F4"/>
<path d="M9.62903 15.7346C10.7353 15.765 11.8117 15.3727 12.639 14.6376L11.173 13.4976C10.8208 13.7235 10.4217 13.866 10.006 13.9144C9.59043 13.9628 9.16924 13.9158 8.77451 13.777C8.37978 13.6382 8.02191 13.4111 7.72812 13.1132C7.43432 12.8153 7.21233 12.4542 7.07903 12.0576H5.57703V13.2276C5.95288 13.9807 6.53107 14.6141 7.24678 15.0569C7.96249 15.4997 8.78741 15.7344 9.62903 15.7346Z" fill="#34A853"/>
<path d="M7.07905 12.0632C6.88885 11.5005 6.88885 10.8909 7.07905 10.3282V9.1582H5.57705C5.25684 9.78966 5.08997 10.4877 5.08997 11.1957C5.08997 11.9037 5.25684 12.6017 5.57705 13.2332L7.07905 12.0632Z" fill="#FBBC04"/>
<path d="M9.62903 8.45386C10.276 8.44204 10.9015 8.68647 11.369 9.13386L12.669 7.84086C11.8401 7.06287 10.7407 6.63852 9.60403 6.65786C8.76739 6.66206 7.94827 6.89786 7.23746 7.33914C6.52665 7.78042 5.95194 8.40992 5.57703 9.15786L7.07903 10.3289C7.25465 9.78894 7.59512 9.31767 8.05253 8.98133C8.50995 8.64499 9.0613 8.46052 9.62903 8.45386Z" fill="#EA4335"/>
</g>
<defs>
<clipPath id="clip0_237_123">
<rect width="38" height="24" fill="white" transform="translate(0 0.0136719)"/>
</clipPath>
</defs>
</svg>
