<svg width="20" height="21" viewBox="0 0 20 21" fill="none" xmlns="http://www.w3.org/2000/svg">
<path d="M9.99998 3.13533C12.4031 3.13533 12.6877 3.14447 13.6367 3.18777C14.5142 3.22782 14.9908 3.37444 15.3079 3.49765C15.728 3.66092 16.0278 3.85598 16.3428 4.1709C16.6577 4.48582 16.8528 4.78567 17.016 5.20573C17.1392 5.5229 17.2859 5.99944 17.3259 6.8769C17.3692 7.82595 17.3783 8.11057 17.3783 10.5137C17.3783 12.9168 17.3692 13.2014 17.3259 14.1504C17.2859 15.0279 17.1392 15.5045 17.016 15.8216C16.8528 16.2417 16.6577 16.5416 16.3428 16.8565C16.0278 17.1714 15.728 17.3665 15.3079 17.5297C14.9908 17.6529 14.5142 17.7996 13.6367 17.8396C12.6879 17.8829 12.4032 17.8921 9.99998 17.8921C7.59672 17.8921 7.3121 17.8829 6.36323 17.8396C5.48574 17.7996 5.00919 17.6529 4.69206 17.5297C4.27196 17.3665 3.97212 17.1714 3.6572 16.8565C3.34227 16.5416 3.14721 16.2417 2.98398 15.8216C2.86073 15.5045 2.71411 15.0279 2.67406 14.1505C2.63076 13.2014 2.62162 12.9168 2.62162 10.5137C2.62162 8.11057 2.63076 7.82595 2.67406 6.87694C2.71411 5.99944 2.86073 5.5229 2.98398 5.20573C3.14721 4.78567 3.34227 4.48582 3.6572 4.1709C3.97212 3.85598 4.27196 3.66092 4.69206 3.49765C5.00919 3.37444 5.48574 3.22782 6.36319 3.18777C7.31224 3.14447 7.59687 3.13533 9.99998 3.13533ZM9.99998 1.51367C7.55571 1.51367 7.24926 1.52403 6.28931 1.56783C5.33133 1.61156 4.67712 1.76368 4.10462 1.98618C3.51279 2.21618 3.01088 2.52392 2.51055 3.02426C2.01021 3.52459 1.70247 4.0265 1.47247 4.61833C1.24997 5.19083 1.09785 5.84504 1.05412 6.80302C1.01032 7.76293 1 8.06942 1 10.5137C1 12.958 1.01032 13.2645 1.05412 14.2244C1.09785 15.1823 1.24997 15.8365 1.47247 16.409C1.70247 17.0008 2.01021 17.5028 2.51055 18.0031C3.01088 18.5035 3.51279 18.8112 4.10462 19.0412C4.67712 19.2637 5.33133 19.4158 6.28931 19.4595C7.24926 19.5033 7.55571 19.5137 9.99998 19.5137C12.4443 19.5137 12.7507 19.5033 13.7107 19.4595C14.6686 19.4158 15.3228 19.2637 15.8953 19.0412C16.4872 18.8112 16.9891 18.5035 17.4894 18.0031C17.9898 17.5028 18.2975 17.0009 18.5275 16.409C18.75 15.8365 18.9021 15.1823 18.9458 14.2244C18.9896 13.2645 19 12.958 19 10.5137C19 8.06942 18.9896 7.76293 18.9458 6.80302C18.9021 5.84504 18.75 5.19083 18.5275 4.61833C18.2975 4.0265 17.9898 3.52459 17.4894 3.02426C16.9891 2.52392 16.4872 2.21618 15.8953 1.98618C15.3228 1.76368 14.6686 1.61156 13.7107 1.56783C12.7507 1.52403 12.4443 1.51367 9.99998 1.51367ZM9.99998 5.89205C7.44753 5.89205 5.37835 7.96124 5.37835 10.5137C5.37835 13.0661 7.44753 15.1353 9.99998 15.1353C12.5524 15.1353 14.6216 13.0661 14.6216 10.5137C14.6216 7.96124 12.5524 5.89205 9.99998 5.89205ZM9.99998 13.5137C8.34314 13.5137 6.99996 12.1705 6.99996 10.5137C6.99996 8.85685 8.34314 7.51367 9.99998 7.51367C11.6568 7.51367 13 8.85685 13 10.5137C13 12.1705 11.6568 13.5137 9.99998 13.5137ZM15.8842 5.70946C15.8842 6.30593 15.4007 6.78948 14.8042 6.78948C14.2077 6.78948 13.7242 6.30593 13.7242 5.70946C13.7242 5.11299 14.2077 4.62948 14.8042 4.62948C15.4007 4.62948 15.8842 5.11299 15.8842 5.70946Z" fill="#0A0A08"/>
</svg>
