<svg width="20" height="21" viewBox="0 0 20 21" fill="none" xmlns="http://www.w3.org/2000/svg">
<g clip-path="url(#clip0_234_1502)">
<path d="M15.8211 2.56317C14.4444 1.24157 12.5392 0.513672 10.4565 0.513672C7.27505 0.513672 5.31832 1.81778 4.23707 2.91173C2.90449 4.2599 2.14038 6.05002 2.14038 7.82315C2.14038 10.0495 3.0716 11.7582 4.63102 12.3939C4.7357 12.4368 4.84106 12.4584 4.94434 12.4584C5.27332 12.4584 5.53399 12.2431 5.6243 11.8979C5.67696 11.6998 5.79891 11.2111 5.85196 10.9989C5.96547 10.58 5.87376 10.3784 5.62618 10.0867C5.17516 9.553 4.96512 8.92195 4.96512 8.10065C4.96512 5.66115 6.78161 3.06849 10.1483 3.06849C12.8196 3.06849 14.479 4.58677 14.479 7.03077C14.479 8.57304 14.1468 10.0013 13.5434 11.0527C13.1241 11.7832 12.3868 12.6541 11.2549 12.6541C10.7655 12.6541 10.3258 12.453 10.0484 12.1025C9.78631 11.7711 9.6999 11.3431 9.80533 10.8969C9.9244 10.3929 10.0868 9.86707 10.2439 9.35878C10.5305 8.43042 10.8015 7.55358 10.8015 6.85401C10.8015 5.65744 10.0658 4.85342 8.97111 4.85342C7.57985 4.85342 6.48989 6.26647 6.48989 8.07038C6.48989 8.95507 6.72501 9.61679 6.83145 9.87086C6.65618 10.6134 5.61454 15.0283 5.41696 15.8608C5.3027 16.3468 4.61449 20.1852 5.7536 20.4913C7.03345 20.8352 8.17747 17.0968 8.29392 16.6744C8.3883 16.3308 8.71849 15.0317 8.92084 14.2331C9.53869 14.8283 10.5335 15.2306 11.5015 15.2306C13.3263 15.2306 14.9674 14.4094 16.1225 12.9185C17.2428 11.4724 17.8598 9.45687 17.8598 7.24342C17.8597 5.51303 17.1166 3.80708 15.8211 2.56317Z" fill="black"/>
</g>
<defs>
<clipPath id="clip0_234_1502">
<rect width="20" height="20" fill="white" transform="translate(0 0.513672)"/>
</clipPath>
</defs>
</svg>
