<svg width="25" height="45" viewBox="0 0 25 45" fill="none" xmlns="http://www.w3.org/2000/svg">
<g clip-path="url(#clip0_182_10783)">
<g clip-path="url(#clip1_182_10783)">
<path fill-rule="evenodd" clip-rule="evenodd" d="M1.31596 0.69834C1.4743 0.540513 1.66239 0.415294 1.86948 0.329856C2.07657 0.244418 2.29857 0.200439 2.52278 0.200439C2.74698 0.200439 2.96899 0.244418 3.17607 0.329856C3.38316 0.415294 3.57126 0.540513 3.7296 0.69834L24.1841 21.0355C24.3429 21.1929 24.4688 21.3799 24.5548 21.5858C24.6407 21.7917 24.6849 22.0125 24.6849 22.2354C24.6849 22.4583 24.6407 22.679 24.5548 22.8849C24.4688 23.0908 24.3429 23.2779 24.1841 23.4353L3.7296 43.7724C3.40953 44.0907 2.97542 44.2695 2.52278 44.2695C2.07013 44.2695 1.63603 44.0907 1.31596 43.7724C0.995891 43.4542 0.816078 43.0226 0.816078 42.5726C0.816078 42.1225 0.995891 41.6909 1.31596 41.3727L20.5671 22.2354L1.31596 3.09813C1.15722 2.9407 1.03128 2.75368 0.945347 2.54778C0.859416 2.34188 0.815186 2.12115 0.815186 1.89823C0.815186 1.67531 0.859416 1.45458 0.945347 1.24869C1.03128 1.04279 1.15722 0.855769 1.31596 0.69834Z" fill="currentColor"/>
</g>
</g>
<defs>
<clipPath id="clip0_182_10783">
<rect width="24" height="44.4706" fill="currentColor" transform="translate(0.75)"/>
</clipPath>
<clipPath id="clip1_182_10783">
<rect width="24" height="44.4706" fill="currentColor" transform="translate(0.75)"/>
</clipPath>
</defs>
</svg>
