<svg width="38" height="25" viewBox="0 0 38 25" fill="none" xmlns="http://www.w3.org/2000/svg">
<g clip-path="url(#clip0_237_102)">
<path opacity="0.07" d="M35 0.0136719H3C1.3 0.0136719 0 1.31367 0 3.01367V21.0137C0 22.7137 1.4 24.0137 3 24.0137H35C36.7 24.0137 38 22.7137 38 21.0137V3.01367C38 1.31367 36.6 0.0136719 35 0.0136719Z" fill="black"/>
<path d="M35 1.01367C36.1 1.01367 37 1.91367 37 3.01367V21.0137C37 22.1137 36.1 23.0137 35 23.0137H3C1.9 23.0137 1 22.1137 1 21.0137V3.01367C1 1.91367 1.9 1.01367 3 1.01367H35Z" fill="white"/>
<path d="M28.3 10.1137H28C27.6 11.1137 27.3 11.6137 27 13.1137H28.9C28.6 11.6137 28.6 10.9137 28.3 10.1137ZM31.2 16.0137H29.5C29.4 16.0137 29.4 16.0137 29.3 15.9137L29.1 15.0137L29 14.8137H26.6C26.5 14.8137 26.4 14.8137 26.4 15.0137L26.1 15.9137C26.1 16.0137 26 16.0137 26 16.0137H23.9L24.1 15.5137L27 8.71367C27 8.21367 27.3 8.01367 27.8 8.01367H29.3C29.4 8.01367 29.5 8.01367 29.5 8.21367L30.9 14.7137C31 15.1137 31.1 15.4137 31.1 15.8137C31.2 15.9137 31.2 15.9137 31.2 16.0137ZM17.8 15.7137L18.2 13.9137C18.3 13.9137 18.4 14.0137 18.4 14.0137C19.1 14.3137 19.8 14.5137 20.5 14.4137C20.7 14.4137 21 14.3137 21.2 14.2137C21.7 14.0137 21.7 13.5137 21.3 13.1137C21.1 12.9137 20.8 12.8137 20.5 12.6137C20.1 12.4137 19.7 12.2137 19.4 11.9137C18.2 10.9137 18.6 9.51367 19.3 8.81367C19.9 8.41367 20.2 8.01367 21 8.01367C22.2 8.01367 23.5 8.01367 24.1 8.21367H24.2C24.1 8.81367 24 9.31367 23.8 9.91367C23.3 9.71367 22.8 9.51367 22.3 9.51367C22 9.51367 21.7 9.51367 21.4 9.61367C21.2 9.61367 21.1 9.71367 21 9.81367C20.8 10.0137 20.8 10.3137 21 10.5137L21.5 10.9137C21.9 11.1137 22.3 11.3137 22.6 11.5137C23.1 11.8137 23.6 12.3137 23.7 12.9137C23.9 13.8137 23.6 14.6137 22.8 15.2137C22.3 15.6137 22.1 15.8137 21.4 15.8137C20 15.8137 18.9 15.9137 18 15.6137C17.9 15.8137 17.9 15.8137 17.8 15.7137ZM14.3 16.0137C14.4 15.3137 14.4 15.3137 14.5 15.0137C15 12.8137 15.5 10.5137 15.9 8.31367C16 8.11367 16 8.01367 16.2 8.01367H18C17.8 9.21367 17.6 10.1137 17.3 11.2137C17 12.7137 16.7 14.2137 16.3 15.7137C16.3 15.9137 16.2 15.9137 16 15.9137L14.3 16.0137ZM5 8.21367C5 8.11367 5.2 8.01367 5.3 8.01367H8.7C9.2 8.01367 9.6 8.31367 9.7 8.81367L10.6 13.2137C10.6 13.3137 10.6 13.3137 10.7 13.4137C10.7 13.3137 10.8 13.3137 10.8 13.3137L12.9 8.21367C12.8 8.11367 12.9 8.01367 13 8.01367H15.1C15.1 8.11367 15.1 8.11367 15 8.21367L11.9 15.5137C11.8 15.7137 11.8 15.8137 11.7 15.9137C11.6 16.0137 11.4 15.9137 11.2 15.9137H9.7C9.6 15.9137 9.5 15.9137 9.5 15.7137L7.9 9.51367C7.7 9.31367 7.4 9.01367 7 8.91367C6.4 8.61367 5.3 8.41367 5.1 8.41367L5 8.21367Z" fill="#142688"/>
</g>
<defs>
<clipPath id="clip0_237_102">
<rect width="38" height="24" fill="white" transform="translate(0 0.0136719)"/>
</clipPath>
</defs>
</svg>
