<svg width="20" height="21" viewBox="0 0 20 21" fill="none" xmlns="http://www.w3.org/2000/svg">
<path d="M18.7892 7.21156C18.9297 8.19517 19 9.16473 19 10.1202V11.4692L18.7892 14.3778C18.6768 15.1928 18.4379 15.783 18.0726 16.1483C17.6792 16.5418 17.089 16.7947 16.3021 16.9071C15.5433 16.9633 14.63 17.0055 13.5621 17.0336C12.5222 17.0617 11.6651 17.0757 10.9906 17.0757H9.97892C6.85948 17.0476 4.82201 16.9914 3.86651 16.9071C3.86651 16.9071 3.7541 16.8931 3.52927 16.865C3.30445 16.8369 3.12178 16.8088 2.98126 16.7807C2.84075 16.7525 2.65808 16.6823 2.43326 16.5699C2.23653 16.4575 2.05386 16.317 1.88525 16.1483C1.74473 15.9797 1.60422 15.7549 1.4637 15.4739C1.35129 15.1647 1.28103 14.8977 1.25293 14.6729L1.16862 14.3778C1.05621 13.3942 1 12.4247 1 11.4692V10.1202L1.16862 7.21156C1.28103 6.39658 1.51991 5.80641 1.88525 5.44107C2.27869 5.01953 2.8829 4.7666 3.69789 4.68229C4.45667 4.62608 5.35597 4.58393 6.39578 4.55583C7.4356 4.52772 8.29274 4.51367 8.96721 4.51367H9.97892C12.5082 4.51367 14.6159 4.56988 16.3021 4.68229C17.089 4.7666 17.6792 5.01953 18.0726 5.44107C18.185 5.55348 18.2834 5.694 18.3677 5.86262C18.452 6.00313 18.5222 6.1577 18.5785 6.32632C18.6347 6.46683 18.6768 6.60735 18.7049 6.74786C18.733 6.88838 18.7611 7.00079 18.7892 7.0851V7.21156ZM12.4239 10.9212L13.0141 10.6261L8.16628 8.09681V13.1554L12.4239 10.9212Z" fill="black"/>
</svg>
