<svg width="25" height="45" viewBox="0 0 25 45" fill="none" xmlns="http://www.w3.org/2000/svg">
<g clip-path="url(#clip0_182_10786)">
<g clip-path="url(#clip1_182_10786)">
<path fill-rule="evenodd" clip-rule="evenodd" d="M24.2492 43.7724C24.0909 43.9302 23.9028 44.0554 23.6957 44.1408C23.4886 44.2263 23.2666 44.2703 23.0424 44.2703C22.8182 44.2703 22.5962 44.2263 22.3891 44.1408C22.182 44.0554 21.9939 43.9302 21.8356 43.7724L1.38105 23.4352C1.22231 23.2778 1.09637 23.0908 1.01044 22.8849C0.924505 22.679 0.880272 22.4582 0.880272 22.2353C0.880272 22.0124 0.924505 21.7917 1.01044 21.5858C1.09637 21.3799 1.22231 21.1928 1.38105 21.0354L21.8356 0.698261C22.1557 0.380028 22.5898 0.201248 23.0424 0.201248C23.4951 0.201248 23.9292 0.380028 24.2492 0.698261C24.5693 1.01649 24.7491 1.4481 24.7491 1.89815C24.7491 2.3482 24.5693 2.77981 24.2492 3.09805L4.99809 22.2353L24.2492 41.3726C24.408 41.53 24.5339 41.717 24.6198 41.9229C24.7058 42.1288 24.75 42.3496 24.75 42.5725C24.75 42.7954 24.7058 43.0161 24.6198 43.222C24.5339 43.4279 24.408 43.6149 24.2492 43.7724Z" fill="currentColor"/>
</g>
</g>
<defs>
<clipPath id="clip0_182_10786">
<rect width="24" height="44.4706" fill="currentColor" transform="translate(0.75)"/>
</clipPath>
<clipPath id="clip1_182_10786">
<rect width="24" height="44.4706" fill="currentColor" transform="translate(24.75 44.4707) rotate(-180)"/>
</clipPath>
</defs>
</svg>
