<svg width="38" height="25" viewBox="0 0 38 25" fill="none" xmlns="http://www.w3.org/2000/svg">
<g clip-path="url(#clip0_237_106)">
<path opacity="0.07" d="M35 0.0136719H3C1.3 0.0136719 0 1.31367 0 3.01367V21.0137C0 22.7137 1.4 24.0137 3 24.0137H35C36.7 24.0137 38 22.7137 38 21.0137V3.01367C38 1.31367 36.6 0.0136719 35 0.0136719Z" fill="black"/>
<path d="M35 1.01367C36.1 1.01367 37 1.91367 37 3.01367V21.0137C37 22.1137 36.1 23.0137 35 23.0137H3C1.9 23.0137 1 22.1137 1 21.0137V3.01367C1 1.91367 1.9 1.01367 3 1.01367H35Z" fill="white"/>
<path d="M15 19.0137C18.866 19.0137 22 15.8797 22 12.0137C22 8.14768 18.866 5.01367 15 5.01367C11.134 5.01367 8 8.14768 8 12.0137C8 15.8797 11.134 19.0137 15 19.0137Z" fill="#EB001B"/>
<path d="M23 19.0137C26.866 19.0137 30 15.8797 30 12.0137C30 8.14768 26.866 5.01367 23 5.01367C19.134 5.01367 16 8.14768 16 12.0137C16 15.8797 19.134 19.0137 23 19.0137Z" fill="#F79E1B"/>
<path d="M22 12.0135C22 9.61348 20.8 7.51348 19 6.31348C17.2 7.61348 16 9.71348 16 12.0135C16 14.3135 17.2 16.5135 19 17.7135C20.8 16.5135 22 14.4135 22 12.0135Z" fill="#FF5F00"/>
</g>
<defs>
<clipPath id="clip0_237_106">
<rect width="38" height="24" fill="white" transform="translate(0 0.0136719)"/>
</clipPath>
</defs>
</svg>
