<svg width="48" height="49" viewBox="0 0 48 49" fill="none" xmlns="http://www.w3.org/2000/svg">
<path d="M13.1323 41.347C12.46 41.347 11.881 41.1042 11.3953 40.6185C10.9096 40.1328 10.6667 39.5538 10.6667 38.8815V21.7809C10.6667 21.1002 10.9096 20.5191 11.3953 20.0377C11.881 19.5562 12.46 19.3155 13.1323 19.3155H16.1073V15.3937C16.1073 13.3455 16.8258 11.6035 18.2628 10.1676C19.6998 8.73164 21.4432 8.01367 23.4929 8.01367C25.5426 8.01367 27.2841 8.73164 28.7174 10.1676C30.1506 11.6035 30.8673 13.3455 30.8673 15.3937V19.3155H33.8423C34.5145 19.3155 35.0935 19.5562 35.5793 20.0377C36.065 20.5191 36.3078 21.1002 36.3078 21.7809V38.8815C36.3078 39.5538 36.065 40.1328 35.5793 40.6185C35.0935 41.1042 34.5145 41.347 33.8423 41.347H13.1323ZM13.1323 39.4075H33.8423C33.9957 39.4075 34.1217 39.3582 34.2204 39.2596C34.319 39.161 34.3683 39.0349 34.3683 38.8815V21.7809C34.3683 21.6275 34.319 21.5015 34.2204 21.4029C34.1217 21.3042 33.9957 21.2549 33.8423 21.2549H13.1323C12.9789 21.2549 12.8528 21.3042 12.7542 21.4029C12.6556 21.5015 12.6062 21.6275 12.6062 21.7809V38.8815C12.6062 39.0349 12.6556 39.161 12.7542 39.2596C12.8528 39.3582 12.9789 39.4075 13.1323 39.4075ZM23.4945 33.2273C24.2918 33.2273 24.9726 32.9491 25.5369 32.3927C26.1012 31.8362 26.3834 31.1666 26.3834 30.3838C26.3834 29.6277 26.0988 28.9473 25.5297 28.3424C24.9606 27.7376 24.2774 27.4351 23.4801 27.4351C22.6828 27.4351 22.002 27.7376 21.4377 28.3424C20.8733 28.9473 20.5912 29.6349 20.5912 30.4052C20.5912 31.1755 20.8757 31.8385 21.4448 32.394C22.014 32.9496 22.6972 33.2273 23.4945 33.2273ZM18.0468 19.3155H28.9278V15.3937C28.9278 13.8824 28.3994 12.5979 27.3427 11.54C26.286 10.4821 25.0029 9.95312 23.4933 9.95312C21.9837 9.95312 20.6985 10.4821 19.6378 11.54C18.5771 12.5979 18.0468 13.8824 18.0468 15.3937V19.3155Z" fill="#6D6D6D"/>
</svg>
