<svg width="48" height="49" viewBox="0 0 48 49" fill="none" xmlns="http://www.w3.org/2000/svg">
<path d="M14.7094 37.3468V35.2463H27.5692C29.8003 35.2463 31.7217 34.5141 33.3333 33.0496C34.945 31.5851 35.7508 29.7528 35.7508 27.5525C35.7508 25.364 34.945 23.5376 33.3333 22.0731C31.7217 20.6086 29.8003 19.8764 27.5692 19.8764H13.3456L18.9603 25.491L17.4792 26.9721L9.33325 18.8261L17.4792 10.6802L18.9603 12.1612L13.3456 17.7759H27.5229C30.3355 17.7759 32.7601 18.7158 34.7966 20.5956C36.8331 22.4755 37.8513 24.7944 37.8513 27.5525C37.8513 30.3224 36.8331 32.6473 34.7966 34.5271C32.7601 36.4069 30.3355 37.3468 27.5229 37.3468H14.7094Z" fill="#6D6D6D"/>
</svg>
