<svg width="20" height="21" viewBox="0 0 20 21" fill="none" xmlns="http://www.w3.org/2000/svg">
<path d="M11.537 5.82325C11.5684 5.74702 11.6182 5.67973 11.6819 5.62739C11.7455 5.57504 11.8212 5.53926 11.9021 5.52322C11.9829 5.50719 12.0665 5.5114 12.1454 5.53548C12.2242 5.55956 12.2959 5.60277 12.354 5.66125L16.354 9.66125C16.4006 9.7077 16.4375 9.76287 16.4627 9.82362C16.4879 9.88436 16.5009 9.94948 16.5009 10.0152C16.5009 10.081 16.4879 10.1461 16.4627 10.2069C16.4375 10.2676 16.4006 10.3228 16.354 10.3692L12.354 14.3692C12.2601 14.4631 12.1328 14.5159 12 14.5159C11.8672 14.5159 11.7399 14.4631 11.646 14.3692C11.5521 14.2754 11.4994 14.148 11.4994 14.0152C11.4994 13.8825 11.5521 13.7551 11.646 13.6612L14.793 10.5152H4C3.86739 10.5152 3.74021 10.4626 3.64645 10.3688C3.55268 10.275 3.5 10.1479 3.5 10.0152C3.5 9.88264 3.55268 9.75546 3.64645 9.6617C3.74021 9.56793 3.86739 9.51525 4 9.51525H14.793L11.646 6.36925C11.5757 6.2993 11.5279 6.21004 11.5085 6.11282C11.4891 6.01561 11.499 5.91481 11.537 5.82325Z" fill="currentColor"/>
</svg>
