<svg width="20" height="21" viewBox="0 0 20 21" fill="none" xmlns="http://www.w3.org/2000/svg">
<path d="M17.1452 7.13896C17.1452 7.30758 17.1452 7.46215 17.1452 7.60266C17.1452 8.8673 16.9063 10.1179 16.4286 11.3544C15.9789 12.5629 15.3185 13.6729 14.4473 14.6846C13.6042 15.6963 12.4941 16.5254 11.1171 17.1718C9.76815 17.79 8.27869 18.0992 6.64871 18.0992C4.59719 18.0992 2.71429 17.5511 1 16.4551C1.28103 16.4832 1.57611 16.4973 1.88525 16.4973C3.59953 16.4973 5.13115 15.9774 6.48009 14.9376C5.66511 14.9095 4.93443 14.6565 4.28806 14.1788C3.66979 13.701 3.24824 13.0968 3.02342 12.3661C3.24824 12.4223 3.47307 12.4504 3.69789 12.4504C4.03513 12.4504 4.35831 12.3942 4.66745 12.2818C3.82436 12.1132 3.12178 11.6917 2.55972 11.0172C1.99766 10.3427 1.71663 9.56988 1.71663 8.69868C1.71663 8.67058 1.71663 8.65653 1.71663 8.65653C2.25059 8.93756 2.81265 9.09213 3.40281 9.12023C2.30679 8.36145 1.75878 7.33569 1.75878 6.04295C1.75878 5.36847 1.9274 4.75021 2.26464 4.18814C3.19204 5.31227 4.30211 6.21156 5.59485 6.88604C6.91569 7.56051 8.33489 7.9399 9.85246 8.02421C9.79625 7.74318 9.76815 7.46215 9.76815 7.18112C9.76815 6.16941 10.1194 5.31227 10.822 4.60969C11.5527 3.87901 12.4239 3.51367 13.4356 3.51367C14.5035 3.51367 15.4028 3.89306 16.1335 4.65185C16.9766 4.48323 17.7635 4.18814 18.4941 3.7666C18.2131 4.63779 17.6651 5.31227 16.8501 5.79002C17.6089 5.70571 18.3255 5.52304 19 5.24201C18.4941 5.97269 17.8759 6.60501 17.1452 7.13896Z" fill="black"/>
</svg>
