<svg width="24" height="25" viewBox="0 0 24 25" fill="none" xmlns="http://www.w3.org/2000/svg">
<mask id="mask0_234_1492" style="mask-type:luminance" maskUnits="userSpaceOnUse" x="2" y="3" width="20" height="20">
<path d="M2.5 3.01367H21.5V22.0137H2.5V3.01367Z" fill="white"/>
</mask>
<g mask="url(#mask0_234_1492)">
<path d="M13.79 3.1532L13.22 3.0732C11.5069 2.82586 9.75885 3.07056 8.17954 3.77877C6.60023 4.48698 5.25476 5.62952 4.3 7.0732C3.28416 8.45318 2.67859 10.0919 2.55298 11.8009C2.42737 13.5098 2.78684 15.2195 3.59 16.7332C3.6722 16.8849 3.72337 17.0515 3.74054 17.2231C3.75771 17.3948 3.74053 17.5682 3.69 17.7332C3.28 19.1432 2.9 20.5632 2.5 22.0532L3 21.9032C4.35 21.5432 5.7 21.1832 7.05 20.8532C7.33494 20.794 7.63112 20.8218 7.9 20.9332C9.1112 21.5243 10.4348 21.8495 11.782 21.887C13.1293 21.9245 14.4689 21.6733 15.7111 21.1504C16.9533 20.6275 18.0692 19.845 18.9841 18.8553C19.899 17.8656 20.5915 16.6917 21.0153 15.4123C21.4392 14.133 21.5844 12.7777 21.4414 11.4376C21.2983 10.0975 20.8703 8.80344 20.1859 7.64236C19.5016 6.48127 18.5769 5.48 17.4737 4.70573C16.3706 3.93146 15.1146 3.40211 13.79 3.1532ZM16.31 16.2732C15.9466 16.5986 15.5034 16.8218 15.0256 16.9202C14.5478 17.0186 14.0524 16.9886 13.59 16.8332C11.4946 16.2432 9.67661 14.9284 8.46 13.1232C7.99529 12.4847 7.6217 11.7847 7.35 11.0432C7.20285 10.613 7.17632 10.1507 7.27327 9.70644C7.37023 9.2622 7.58698 8.85299 7.9 8.5232C8.05239 8.32872 8.25981 8.18463 8.49526 8.10972C8.7307 8.0348 8.98325 8.03253 9.22 8.1032C9.42 8.1532 9.56 8.4432 9.74 8.6632C9.886 9.0762 10.057 9.4802 10.25 9.8732C10.3964 10.0737 10.4576 10.324 10.4201 10.5694C10.3826 10.8149 10.2496 11.0355 10.05 11.1832C9.6 11.5832 9.67 11.9132 9.99 12.3632C10.6974 13.3824 11.6736 14.1854 12.81 14.6832C13.13 14.8232 13.37 14.8532 13.58 14.5232C13.67 14.3932 13.79 14.2832 13.89 14.1632C14.47 13.4332 14.29 13.4432 15.21 13.8432C15.503 13.9662 15.787 14.1102 16.06 14.2732C16.33 14.4332 16.74 14.6032 16.8 14.8432C16.8577 15.1036 16.8425 15.3748 16.7561 15.6271C16.6696 15.8794 16.5153 16.103 16.31 16.2732Z" fill="black"/>
</g>
</svg>
