<svg width="48" height="49" viewBox="0 0 48 49" fill="none" xmlns="http://www.w3.org/2000/svg">
<path d="M24 40.0137C21.7717 40.0137 19.6842 39.5932 17.7377 38.7521C15.7911 37.9111 14.095 36.7705 12.6494 35.3303C11.2038 33.8901 10.0675 32.1924 9.24051 30.2372C8.4135 28.282 8 26.1848 8 23.9457C8 21.7173 8.4135 19.6342 9.24051 17.6963C10.0675 15.7584 11.2038 14.0693 12.6494 12.6291C14.095 11.1889 15.7911 10.0596 17.7377 9.24121C19.6842 8.42285 21.7717 8.01367 24 8.01367C26.2283 8.01367 28.3158 8.42285 30.2623 9.24121C32.2089 10.0596 33.905 11.1889 35.3506 12.6291C36.7962 14.0693 37.9325 15.7584 38.7595 17.6963C39.5865 19.6342 40 21.7173 40 23.9457C40 26.1848 39.5865 28.282 38.7595 30.2372C37.9325 32.1924 36.7962 33.8901 35.3506 35.3303C33.905 36.7705 32.2089 37.9111 30.2623 38.7521C28.3158 39.5932 26.2283 40.0137 24 40.0137ZM24 38.187C25.0472 37.0577 25.9088 35.8323 26.5846 34.5109C27.2605 33.1894 27.8143 31.6412 28.2462 29.8663H19.7797C20.2051 31.6153 20.7557 33.1608 21.4316 34.5028C22.1074 35.8447 22.9636 37.0728 24 38.187ZM21.328 37.8437C20.5399 36.8202 19.8419 35.6288 19.234 34.2696C18.6262 32.9103 18.1485 31.4426 17.8008 29.8663H11.0963C12.1738 32.0428 13.5276 33.7616 15.1579 35.0227C16.7881 36.2837 18.8448 37.224 21.328 37.8437ZM26.7141 37.8178C28.9187 37.3233 30.9117 36.3873 32.6931 35.0097C34.4745 33.6321 35.878 31.9176 36.9037 29.8663H30.2251C29.8062 31.4469 29.2998 32.9114 28.706 34.2599C28.1122 35.6083 27.4483 36.7943 26.7141 37.8178ZM10.481 27.9554H17.4511C17.3452 27.1867 17.2772 26.479 17.247 25.8324C17.2167 25.1856 17.2016 24.5568 17.2016 23.9457C17.2016 23.2655 17.2211 22.6221 17.2599 22.0153C17.2988 21.4086 17.3712 20.7521 17.477 20.0461H10.481C10.2737 20.6982 10.1268 21.3287 10.0405 21.9376C9.9541 22.5465 9.91091 23.2159 9.91091 23.9457C9.91091 24.6863 9.9541 25.374 10.0405 26.0089C10.1268 26.6437 10.2737 27.2925 10.481 27.9554ZM19.4138 27.9554H28.6122C28.7352 27.1068 28.8162 26.3846 28.8551 25.7886C28.894 25.1926 28.9134 24.5783 28.9134 23.9457C28.9134 23.3411 28.894 22.7522 28.8551 22.1789C28.8162 21.6056 28.7352 20.8947 28.6122 20.0461H19.4138C19.2907 20.8947 19.2097 21.6056 19.1708 22.1789C19.132 22.7522 19.1125 23.3411 19.1125 23.9457C19.1125 24.5783 19.132 25.1926 19.1708 25.7886C19.2097 26.3846 19.2907 27.1068 19.4138 27.9554ZM30.523 27.9554H37.519C37.7263 27.2925 37.8732 26.6437 37.9595 26.0089C38.0459 25.374 38.0891 24.6863 38.0891 23.9457C38.0891 23.2159 38.0459 22.5465 37.9595 21.9376C37.8732 21.3287 37.7263 20.6982 37.519 20.0461H30.5652C30.6602 20.9745 30.7271 21.7308 30.766 22.3149C30.8048 22.899 30.8243 23.4426 30.8243 23.9457C30.8243 24.574 30.8005 25.1916 30.753 25.7983C30.7055 26.4051 30.6288 27.1241 30.523 27.9554ZM30.1992 18.1352H36.9037C35.9126 15.9824 34.5398 14.2253 32.7854 12.8639C31.031 11.5025 28.9932 10.6037 26.672 10.1675C27.4601 11.2277 28.1484 12.418 28.7368 13.7384C29.3252 15.0588 29.8127 16.5244 30.1992 18.1352ZM19.7797 18.1352H28.2883C27.9147 16.5503 27.3603 15.055 26.6251 13.6493C25.8899 12.2437 25.0149 10.9913 24 9.8922C23.0478 10.7689 22.244 11.8518 21.5887 13.1408C20.9333 14.4299 20.3303 16.0947 19.7797 18.1352ZM11.0963 18.1352H17.8267C18.1787 16.5762 18.6419 15.1435 19.2162 13.8372C19.7906 12.5308 20.4805 11.3162 21.2859 10.1934C18.9647 10.6404 16.9425 11.5332 15.2194 12.872C13.4963 14.2107 12.122 15.9651 11.0963 18.1352Z" fill="#6D6D6D"/>
</svg>
